# xmcd
#
# Track frame offsets: 
#        150
#        1527
#        14495
#        30375
#        40125
#        53135
#        62645
#        74382
#        76412
#        99642
#        110062
#        110805
#        125642
#        154790
#        175232
#        186552
#        204867
#        213375
#
# Disc length: 3187 seconds
#
# Revision: 2
# Processed by: cddbd v1.5.2PL0 Copyright (c) Steve Scherf et al.
# Submitted via: ExactAudioCopy v0.95b4
#
DISCID=f70c7112
DTITLE=Corey Harris - Downhome Sophisticate
DYEAR=2002
DGENRE=
TTITLE0=Giddyup
TTITLE1=Frankie Doris
TTITLE2=Money On My Mind
TTITLE3=Don´t Let The Devil Ride
TTITLE4=Keep Your Lamp Trimmed And Burning
TTITLE5=Capitaine
TTITLE6=Santoro
TTITLE7=Fire On The Radio
TTITLE8=Fire
TTITLE9=BB
TTITLE10=Downhome Prelude
TTITLE11=Downhome Sophisticate
TTITLE12=Sista Rose
TTITLE13=Black Maria
TTITLE14=Chinook
TTITLE15=Money Eye
TTITLE16=Where The Yellow Cross The Dog
TTITLE17=F'shizza (Santoro Remix)
EXTD=
EXTT0=
EXTT1=
EXTT2=
EXTT3=
EXTT4=
EXTT5=
EXTT6=
EXTT7=
EXTT8=
EXTT9=
EXTT10=
EXTT11=
EXTT12=
EXTT13=
EXTT14=
EXTT15=
EXTT16=
EXTT17=
PLAYORDER=
